# AST/ASF file generated using VICON BodyLanguage
# -----------------------------------------------
:version 1.10
:name VICON
:units
  mass 1.0
  length 0.45
  angle deg
:documentation
   .ast/.asf automatically generated from VICON data using
   VICON BodyBuilder and BodyLanguage model FoxedUp or BRILLIANT.MOD
:root
   order TX TY TZ RX RY RZ
   axis XYZ
   position 0 0 0  
   orientation 0 0 0 
:bonedata
  begin
     id 1 
     name lhipjoint
     direction 0.635376 -0.686425 0.353719 
     length 2.47244 
     axis 0 0 0  XYZ
  end
  begin
     id 2 
     name lfemur
     direction 0.34202 -0.939693 0  
     length 7.25268  
     axis 0 0 20  XYZ
    dof rx ry rz
    limits (-160.0 20.0)
           (-70.0 70.0)
           (-60.0 70.0)
  end
  begin
     id 3 
     name ltibia
     direction 0.34202 -0.939693 0   
     length 7.6767   
     axis 0 0 20   XYZ
    dof rx
    limits (-10.0 170.0)
  end
  begin
     id 4 
     name lfoot
     direction 0.0803374 -0.220725 0.972022   
     length 2.22945   
     axis -90 7.62852e-016 20   XYZ
    dof rx rz
    limits (-45.0 90.0)
           (-70.0 20.0)
  end
  begin
     id 5 
     name ltoes
     direction 1.53579e-011 -4.21994e-011 1   
     length 1.11848   
     axis -90 7.62852e-016 20   XYZ
    dof rx
    limits (-90.0 20.0)
  end
  begin
     id 6 
     name rhipjoint
     direction -0.664428 -0.664335 0.342336   
     length 2.55466  
     axis 0 0 0  XYZ 
  end
  begin
     id 7 
     name rfemur
     direction -0.34202 -0.939693 0   
     length 6.83172   
     axis 0 0 -20   XYZ
    dof rx ry rz
    limits (-160.0 20.0)
           (-70.0 70.0)
           (-70.0 60.0)
  end
  begin
     id 8 
     name rtibia
     direction -0.34202 -0.939693 0   
     length 7.62692   
     axis 0 0 -20   XYZ
    dof rx
    limits (-10.0 170.0)
 end
 begin
     id 9 
     name rfoot
     direction -0.0949276 -0.260811 0.960711   
     length 2.19684  
     axis -90 -7.62852e-016 -20   XYZ
    dof rx rz
    limits (-45.0 90.0)
           (-20.0 70.0)
  end
  begin
     id 10 
     name rtoes
     direction -1.53543e-011 -4.2183e-011 1   
     length 1.09848   
     axis -90 -7.62852e-016 -20   XYZ
    dof rx
    limits (-90.0 20.0)
  end
  begin
     id 11 
     name lowerback
     direction 0.0118782 0.999815 -0.0151555   
     length 2.15772   
     axis 0 0 0   XYZ
    dof rx ry rz
    limits (-20.0 45.0)
           (-30.0 30.0)
           (-30.0 30.0)
  end
  begin
     id 12 
     name upperback
     direction 0.00130825 0.999065 0.0432113   
     length 2.14863   
     axis 0 0 0   XYZ
    dof rx ry rz
    limits (-20.0 45.0)
           (-30.0 30.0)
           (-30.0 30.0)
  end
  begin
     id 13 
     name thorax
     direction -0.00347005 0.998773 0.0494011   
     length 2.14936   
     axis 0 0 0   XYZ
    dof rx ry rz
    limits (-20.0 45.0)
           (-30.0 30.0)
           (-30.0 30.0)
  end
  begin
     id 14 
     name lowerneck
     direction -0.0262159 0.99424 0.103921   
     length 1.69373   
     axis 0 0 0   XYZ
    dof rx ry rz
    limits (-20.0 45.0)
           (-30.0 30.0)
           (-30.0 30.0)
  end
  begin
     id 15 
     name upperneck
     direction 0.0353511 0.977394 -0.20845   
     length 1.70857   
     axis 0 0 0   XYZ
    dof rx ry rz
    limits (-20.0 45.0)
           (-30.0 30.0)
           (-30.0 30.0)
  end
  begin
     id 16
     name head
     direction 0.0139214 0.996594 -0.0812836  
     length 1.72777  
     axis 0 0 0   XYZ
    dof rx ry rz
    limits (-20.0 45.0)
           (-30.0 30.0)
           (-30.0 30.0)
  end
  begin
     id 17 
     name lclavicle
     direction 0.841247 0.537205 -0.0609508  
     length 3.55371  
     axis 0 0 0   XYZ
    dof ry rz
    limits (-20.0 10.0)
           (0.0 20.0)
  end
  begin
     id 18 
     name lhumerus
     direction 1 -4.48964e-011 1.60116e-018   
     length 4.91377   
     axis -180 -30 -90   XYZ
    dof rx ry rz
    limits (-60.0 90.0)
           (-90.0 90.0)
           (-90.0 90.0)
  end
  begin
     id 19
     name lradius
     direction 1 -4.48989e-011 -8.93847e-027   
     length 3.00291   
     axis -180 -30 -90   XYZ
    dof rx
    limits (-10.0 170.0)
  end
  begin
     id 20
     name lwrist
     direction 1 -4.48932e-011 -7.31504e-027   
     length 1.50145   
     axis 5.74121e-015 90 90   XYZ
    dof ry
    limits (-180.0 0.0)
 end
  begin
     id 21 
     name lhand
     direction 1 -4.48971e-011 -1.46301e-026   
     length 0.450922   
     axis 9.33524e-015 90 90   XYZ
    dof rx rz
    limits (-90.0 90.0)
           (-45.0 45.0)
  end
  begin
     id 22 
     name lfingers
     direction 1 -4.49039e-011 -2.92602e-026   
     length 0.363545   
     axis 1.86705e-014 90 90   XYZ
    dof rx
    limits (0.0 90.0)
  end
  begin
     id 23
     name lthumb
     direction 0.707107 -6.34941e-011 0.707107   
     length 0.52198   
     axis -90 45 2.85299e-015   XYZ
    dof rx rz
    limits (-45.0 45.0)
           (-45.0 45.0)
  end
  begin
     id 24 
     name rclavicle
     direction -0.825079 0.56158 -0.0622297   
     length 3.39909  
     axis 0 0 0   XYZ 
    dof ry rz
    limits (-10.0 20.0)
           (-20.0 0.0)
  end
  begin
     id 25 
     name rhumerus
     direction -1 -4.48965e-011 1.61691e-027  
     length 4.86725   
     axis -180 30 90   XYZ
    dof rx ry rz
    limits (-90.0 60.0)
           (-90.0 90.0)
           (-90.0 90.0)
  end
  begin
     id 26 
     name rradius
     direction -1 -4.48964e-011 -2.25776e-027   
     length 3.17144   
     axis -180 30 90   XYZ
    dof rx
    limits (-10.0 170.0)
  end
  begin
     id 27 
     name rwrist
     direction -1 -4.48961e-011 -7.31504e-027   
     length 1.58572   
     axis 5.74121e-015 -90 -90   XYZ
    dof ry
    limits (-180.0 0.0)
  end
  begin
     id 28
     name rhand
     direction -1 -4.49013e-011 -1.46301e-026   
     length 0.419368   
     axis 9.33524e-015 -90 -90   XYZ
    dof rx rz
    limits (-90.0 90.0)
           (-45.0 45.0)
  end
  begin
     id 29
     name rfingers
     direction -1 -4.489e-011 -2.92602e-026   
     length 0.338105   
     axis 1.86705e-014 -90 -90   XYZ
    dof rx
    limits (0.0 90.0)
  end
  begin
     id 30
     name rthumb
     direction -0.707107 -6.35022e-011 0.707107   
     length 0.485453   
     axis -90 -45 -2.85299e-015   XYZ
    dof rx rz
    limits (-45.0 45.0)
           (-45.0 45.0)
  end
:hierarchy
  begin
    root lhipjoint rhipjoint lowerback
    lhipjoint lfemur
    lfemur ltibia
    ltibia lfoot
    lfoot ltoes
    rhipjoint rfemur
    rfemur rtibia
    rtibia rfoot
    rfoot rtoes
    lowerback upperback
    upperback thorax
    thorax lowerneck lclavicle rclavicle
    lowerneck upperneck
    upperneck head
    lclavicle lhumerus
    lhumerus lradius
    lradius lwrist
    lwrist lhand lthumb
    lhand lfingers
    rclavicle rhumerus
    rhumerus rradius
    rradius rwrist
    rwrist rhand rthumb
    rhand rfingers
  end

#!OML:ASF H:\Swim 2\Project 1\Capture day 1\Session 1\male.ASF
:FULLY-SPECIFIED
:DEGREES
156
root 7.59901 9.83227 11.9322 96.8899 -0.223883 3.2105
lowerback -8.51694 3.86241 -2.89978
upperback -1.80395 5.4695 0.139585
thorax 2.60394 2.73912 2.33287
lowerneck -33.7661 -6.07878 4.61812
upperneck 35.9157 -9.723 -4.48752
head 18.7482 -3.66765 -5.29463
rclavicle 1.59028e-014 -5.2181e-016
rhumerus 87.3953 -33.4212 -23.9349
rradius 37.6111
rwrist -14.8988
rhand -27.5028 -4.92155
rfingers 7.12502
rthumb -0.905735 -34.8994
lclavicle 1.59028e-014 -5.2181e-016
lhumerus 103.955 17.8208 52.4759
lradius 40.2966
lwrist 18.0713
lhand -34.3925 -3.14089
lfingers 7.12502
lthumb -7.55845 26.7041
rfemur -29.9751 -10.2015 -18.0151
rtibia 92.4894
rfoot 6.56705 -11.0309
rtoes 26.0158
lfemur -37.2544 -1.47501 16.6217
ltibia 102.057
lfoot -0.864988 21.7201
ltoes 43.0225
157
root 7.59969 9.82866 11.9534 97.1274 -0.250618 3.22586
lowerback -8.74406 3.72291 -2.73783
upperback -1.84541 5.27606 0.0800131
thorax 2.71822 2.64138 2.17993
lowerneck -33.8785 -5.87548 4.63338
upperneck 36.1372 -9.47631 -4.42724
head 18.9301 -3.54215 -5.2402
rclavicle 7.63333e-014 7.47927e-015
rhumerus 88.3602 -33.5154 -24.5064
rradius 36.0144
rwrist -11.6371
rhand -26.6384 -4.1342
rfingers 7.12502
rthumb -0.0708381 -34.1139
lclavicle 7.63333e-014 7.47927e-015
lhumerus 104.245 18.1976 52.4356
lradius 38.6152
lwrist 16.6917
lhand -33.7573 -4.14347
lfingers 7.12502
lthumb -6.94526 25.7226
rfemur -29.5454 -9.7201 -17.9813
rtibia 90.4136
rfoot 6.51002 -11.6946
rtoes 26.2444
lfemur -36.9127 -1.6566 16.5185
ltibia 99.9435
lfoot -1.06665 22.9033
ltoes 43.4714
158
root 7.60038 9.82526 11.9733 97.3706 -0.27325 3.2482
lowerback -8.92281 3.53384 -2.47019
upperback -1.9384 5.00446 -0.00760476
thorax 2.76632 2.50727 1.92405
lowerneck -33.8579 -5.63218 4.60033
upperneck 36.3426 -9.16637 -4.28889
head 19.0884 -3.39098 -5.117
rclavicle -2.70347e-014 6.58474e-015
rhumerus 89.4445 -33.4167 -25.3846
rradius 34.4982
rwrist -8.08729
rhand -25.9128 -3.26626
rfingers 7.12502
rthumb 0.63001 -33.2451
lclavicle -2.70347e-014 6.58474e-015
lhumerus 104.32 18.692 52.1657
lradius 36.9584
lwrist 15.3128
lhand -33.1521 -5.3223
lfingers 7.12502
lthumb -6.3611 24.5622
rfemur -29.1524 -9.24929 -17.9255
rtibia 88.3805
rfoot 6.49467 -12.3357
rtoes 26.576
lfemur -36.6021 -1.8494 16.395
ltibia 97.8422
lfoot -1.23928 23.9822
ltoes 43.8602
159
root 7.60105 9.82205 11.992 97.612 -0.293226 3.26853
lowerback -9.05138 3.32349 -2.1408
upperback -2.08882 4.69661 -0.113147
thorax 2.73172 2.35741 1.60387
lowerneck -33.6915 -5.37483 4.5503
upperneck 36.5392 -8.82717 -4.12296
head 19.2126 -3.23104 -4.96093
rclavicle 7.95139e-015 1.3418e-015
rhumerus 90.5249 -33.1604 -26.4235
rradius 33.0736
rwrist -4.29478
rhand -25.3825 -2.34646
rfingers 7.12502
rthumb 1.14218 -32.3231
lclavicle 7.95139e-015 1.3418e-015
lhumerus 104.22 19.2245 51.7484
lradius 35.2957
lwrist 13.818
lhand -32.582 -6.63595
lfingers 7.12502
lthumb -5.81064 23.2644
rfemur -28.797 -8.77275 -17.8495
rtibia 86.3948
rfoot 6.5267 -12.944
rtoes 26.9323
lfemur -36.3083 -2.05965 16.2502
ltibia 95.7598
lfoot -1.40016 24.9653
ltoes 44.2489
160
root 7.60187 9.81902 12.0096 97.8338 -0.31517 3.28558
lowerback -9.11661 3.12105 -1.79533
upperback -2.29728 4.39607 -0.226274
thorax 2.59887 2.21272 1.25996
lowerneck -33.3509 -5.14189 4.48952
upperneck 36.7109 -8.50716 -3.95148
head 19.2779 -3.08499 -4.79213
rclavicle 3.33958e-014 2.88238e-015
rhumerus 91.4839 -32.7885 -27.4828
rradius 31.7499
rwrist -0.294303
rhand -25.0592 -1.39074
rfingers 7.12502
rthumb 1.45435 -31.3655
lclavicle 3.33958e-014 2.88238e-015
lhumerus 103.972 19.7486 51.2171
lradius 33.6238
lwrist 12.1615
lhand -32.0898 -8.0083
lfingers 7.12502
lthumb -5.33541 21.9045
rfemur -28.4602 -8.27952 -17.7633
rtibia 84.4568
rfoot 6.61358 -13.5012
rtoes 27.306
lfemur -36.0142 -2.30305 16.0797
ltibia 93.7036
lfoot -1.5509 25.8456
ltoes 44.6161
161
root 7.60296 9.816 12.0259 98.0409 -0.340033 3.29215
lowerback -9.14954 2.96275 -1.49494
upperback -2.53625 4.15843 -0.333449
thorax 2.40666 2.09929 0.950514
lowerneck -32.8943 -4.96413 4.46124
upperneck 36.8456 -8.25253 -3.83767
head 19.2782 -2.97362 -4.6615
rclavicle 1.59028e-014 -2.08724e-015
rhumerus 92.1482 -32.4588 -28.312
rradius 30.5747
rwrist 3.73215
rhand -24.913 -0.445608
rfingers 7.12502
rthumb 1.59564 -30.4194
lclavicle 1.59028e-014 -2.08724e-015
lhumerus 103.673 20.2011 50.6982
lradius 31.955
lwrist 10.2503
lhand -31.7154 -9.36377
lfingers 7.12502
lthumb -4.97391 20.5579
rfemur -28.1505 -7.76874 -17.67
rtibia 82.568
rfoot 6.7633 -13.9981
rtoes 27.6759
lfemur -35.7185 -2.56845 15.8889
ltibia 91.6823
lfoot -1.69922 26.5908
ltoes 44.9727
162
root 7.60457 9.81279 12.0409 98.2367 -0.372839 3.28859
lowerback -9.18446 2.8781 -1.3079
upperback -2.77232 4.03035 -0.418337
thorax 2.20385 2.03977 0.73909
lowerneck -32.3908 -4.87907 4.48007
upperneck 36.9354 -8.11961 -3.80762
head 19.2187 -2.91878 -4.60044
rclavicle -5.08889e-014 -4.77083e-015
rhumerus 92.399 -32.3075 -28.7124
rradius 29.5795
rwrist 7.60739
rhand -24.8934 0.472344
rfingers 7.12502
rthumb 1.61453 -29.5013
lclavicle -5.08889e-014 -4.77083e-015
lhumerus 103.431 20.517 50.3478
lradius 30.3
lwrist 7.98753
lhand -31.4834 -10.639
lfingers 7.12502
lthumb -4.74996 19.2878
rfemur -27.8671 -7.25422 -17.58
rtibia 80.7275
rfoot 6.95199 -14.4732
rtoes 27.9024
lfemur -35.4259 -2.85322 15.6767
ltibia 89.7029
lfoot -1.83325 27.1855
ltoes 45.2782
163
root 7.60691 9.80937 12.0547 98.4239 -0.411372 3.27565
lowerback -9.2549 2.86377 -1.22921
upperback -2.96115 4.00726 -0.477146
thorax 2.05735 2.0316 0.629749
lowerneck -31.8981 -4.87472 4.55704
upperneck 36.9407 -8.09068 -3.87817
head 19.0904 -2.91636 -4.61432
rclavicle -2.06736e-014 6.26172e-015
rhumerus 92.2655 -32.4065 -28.6558
rradius 28.7698
rwrist 11.1714
rhand -24.954 1.35675
rfingers 7.12502
rthumb 1.55599 -28.6173
lclavicle -2.06736e-014 6.26172e-015
lhumerus 103.25 20.8384 50.1133
lradius 28.7065
lwrist 5.49354
lhand -31.4224 -11.7791
lfingers 7.12502
lthumb -4.69105 18.149
rfemur -27.6116 -6.75616 -17.4924
rtibia 78.9336
rfoot 7.18442 -14.9147
rtoes 27.9793
lfemur -35.1395 -3.15483 15.4471
ltibia 87.7724
lfoot -1.92641 27.6332
ltoes 45.4906
164
root 7.60995 9.806 12.0666 98.6015 -0.451817 3.24894
lowerback -9.35651 2.91746 -1.26961
upperback -3.09822 4.08686 -0.502434
thorax 1.96902 2.07448 0.635588
lowerneck -31.4843 -4.94745 4.68671
upperneck 36.9127 -8.16652 -4.04313
head 18.9422 -2.96175 -4.70577
rclavicle 6.67916e-014 -1.16289e-014
rhumerus 91.7794 -32.7393 -28.1662
rradius 28.1282
rwrist 14.3179
rhand -25.0416 2.20363
rfingers 7.12502
rthumb 1.4714 -27.771
lclavicle 6.67916e-014 -1.16289e-014
lhumerus 103.216 21.026 50.2081
lradius 27.1236
lwrist 2.56076
lhand -31.537 -12.8073
lfingers 7.12502
lthumb -4.80163 17.1183
rfemur -27.3863 -6.26536 -17.403
rtibia 77.1878
rfoot 7.42551 -15.3674
rtoes 27.9101
lfemur -34.8606 -3.45911 15.208
ltibia 85.9013
lfoot -1.97754 27.9552
ltoes 45.6166
165
root 7.61379 9.80297 12.0756 98.7819 -0.48974 3.20966
lowerback -9.50454 3.00458 -1.38266
upperback -3.16672 4.21854 -0.493399
thorax 1.9682 2.14255 0.727983
lowerneck -31.2008 -5.0518 4.83656
upperneck 36.8523 -8.28211 -4.26512
head 18.7981 -3.02857 -4.83925
rclavicle -4.45278e-014 1.73937e-015
rhumerus 91.1401 -33.2343 -27.4643
rradius 27.6051
rwrist 17.0114
rhand -25.1502 3.01943
rfingers 7.12502
rthumb 1.36649 -26.9559
lclavicle -4.45278e-014 1.73937e-015
lhumerus 103.321 21.166 50.6479
lradius 25.5377
lwrist -0.79307
lhand -31.8143 -13.7519
lfingers 7.12502
lthumb -5.06944 16.1675
rfemur -27.206 -5.80148 -17.3099
rtibia 75.4936
rfoot 7.66384 -15.8254
rtoes 27.708
lfemur -34.6069 -3.77151 14.9644
ltibia 84.1015
lfoot -1.98858 28.2094
ltoes 45.6688
166
root 7.61836 9.80031 12.0817 98.959 -0.523393 3.16043
lowerback -9.66056 3.0896 -1.50156
upperback -3.20742 4.34793 -0.466519
thorax 1.99809 2.20894 0.8436
lowerneck -30.9691 -5.15116 4.96004
upperneck 36.7814 -8.38656 -4.46912
head 18.6649 -3.0921 -4.95824
rclavicle -4.77083e-015 6.11263e-015
rhumerus 90.4795 -33.7379 -26.7697
rradius 27.1592
rwrist 19.2322
rhand -25.2852 3.78283
rfingers 7.12502
rthumb 1.23611 -26.1933
lclavicle -4.77083e-015 6.11263e-015
lhumerus 103.504 21.2385 51.4393
lradius 23.9209
lwrist -4.57716
lhand -32.2354 -14.6423
lfingers 7.12502
lthumb -5.47599 15.267
rfemur -27.0608 -5.36291 -17.2083
rtibia 73.8469
rfoot 7.91389 -16.2734
rtoes 27.532
lfemur -34.3766 -4.08985 14.7179
ltibia 82.38
lfoot -1.98185 28.4365
ltoes 45.6683
167
root 7.62353 9.79801 12.0852 99.1309 -0.548055 3.10189
lowerback -9.81758 3.1698 -1.61758
upperback -3.22819 4.47038 -0.42249
thorax 2.04742 2.27138 0.975737
lowerneck -30.796 -5.23052 5.0719
upperneck 36.7243 -8.46247 -4.66731
head 18.558 -3.14366 -5.06991
rclavicle 4.6118e-014 -8.15017e-015
rhumerus 89.8027 -34.2322 -26.0972
rradius 26.7745
rwrist 20.9106
rhand -25.4624 4.44592
rfingers 7.12502
rthumb 1.06501 -25.5312
lclavicle 4.6118e-014 -8.15017e-015
lhumerus 103.848 21.1531 52.7817
lradius 22.2329
lwrist -8.84806
lhand -32.7456 -15.55
lfingers 7.12502
lthumb -5.96861 14.3459
rfemur -26.9465 -4.9482 -17.0903
rtibia 72.2429
rfoot 8.16671 -16.7061
rtoes 27.4932
lfemur -34.1686 -4.40888 14.4738
ltibia 80.7409
lfoot -1.9839 28.666
ltoes 45.6506
168
root 7.62913 9.7959 12.0866 99.2975 -0.5653 3.03388
lowerback -9.97829 3.25213 -1.74142
upperback -3.23731 4.59651 -0.36266
thorax 2.10803 2.33539 1.13
lowerneck -30.6474 -5.29533 5.16646
upperneck 36.6745 -8.51986 -4.84199
head 18.4663 -3.18588 -5.16518
rclavicle -4.29375e-014 -1.61513e-014
rhumerus 89.0728 -34.7136 -25.4206
rradius 26.4464
rwrist 22.0386
rhand -25.7035 4.97096
rfingers 7.12502
rthumb 0.832112 -25.0072
lclavicle -4.29375e-014 -1.61513e-014
lhumerus 104.409 20.8465 54.8203
lradius 20.4735
lwrist -13.5737
lhand -33.306 -16.4911
lfingers 7.12502
lthumb -6.50958 13.3889
rfemur -26.8589 -4.5596 -16.9546
rtibia 70.6736
rfoot 8.41966 -17.127
rtoes 27.6039
lfemur -33.9807 -4.72395 14.2292
ltibia 79.1826
lfoot -2.00099 28.8957
ltoes 45.6323
169
root 7.63506 9.79372 12.0864 99.4633 -0.578221 2.95745
lowerback -10.1511 3.3281 -1.86713
upperback -3.23236 4.71443 -0.288522
thorax 2.18784 2.39473 1.301
lowerneck -30.5285 -5.32887 5.25706
upperneck 36.6262 -8.53551 -5.00727
head 18.388 -3.21058 -5.24806
rclavicle 5.40694e-014 -8.05078e-015
rhumerus 88.3465 -35.1706 -24.8113
rradius 26.1606
rwrist 22.7047
rhand -25.9984 5.35245
rfingers 7.12502
rthumb 0.547325 -24.6266
lclavicle 5.40694e-014 -8.05078e-015
lhumerus 105.206 20.3189 57.6403
lradius 18.6736
lwrist -18.7065
lhand -33.8567 -17.4458
lfingers 7.12502
lthumb -7.04128 12.4171
rfemur -26.7958 -4.20358 -16.8018
rtibia 69.1284
rfoot 8.67514 -17.5306
rtoes 27.9227
lfemur -33.8149 -5.01911 13.9811
ltibia 77.7013
lfoot -2.03263 29.111
ltoes 45.6025
170
root 7.64103 9.79139 12.0851 99.6217 -0.595232 2.86985
lowerback -10.3284 3.40092 -2.01612
upperback -3.21925 4.83054 -0.198855
thorax 2.27449 2.45284 1.50187
lowerneck -30.429 -5.33619 5.3442
upperneck 36.5918 -8.5157 -5.16595
head 18.3268 -3.21968 -5.32196
rclavicle 3.65764e-014 -1.64991e-014
rhumerus 87.6405 -35.5973 -24.3016
rradius 25.9062
rwrist 23.0436
rhand -26.3195 5.60457
rfingers 7.12502
rthumb 0.237183 -24.375
lclavicle 3.65764e-014 -1.64991e-014
lhumerus 106.308 19.4268 61.5055
lradius 16.8443
lwrist -24.424
lhand -34.3618 -18.3205
lfingers 7.12502
lthumb -7.5288 11.5255
rfemur -26.747 -3.87393 -16.6406
rtibia 67.5964
rfoot 8.90381 -17.9613
rtoes 28.2983
lfemur -33.6587 -5.28646 13.7169
ltibia 76.2852
lfoot -2.07509 29.3073
ltoes 45.5645
